<svg width="25" height="25" viewBox="0 0 25 25" fill="none" xmlns="http://www.w3.org/2000/svg">
<path d="M17.3595 7.34668C15.4696 7.34668 14.6709 8.24849 13.3548 8.24849C12.0054 8.24849 10.9761 7.35324 9.33837 7.35324C7.73537 7.35324 6.02597 8.33192 4.94042 9.99914C3.41616 12.3502 3.67489 16.7782 6.14361 20.5504C7.02667 21.9007 8.20596 23.4152 9.75272 23.4316H9.78084C11.1251 23.4316 11.5245 22.5513 13.3745 22.541H13.4026C15.225 22.541 15.5906 23.4264 16.9292 23.4264H16.9573C18.5041 23.41 19.7466 21.732 20.6297 20.3868C21.2653 19.4194 21.5015 18.9338 21.989 17.8393C18.4178 16.4838 17.8441 11.4212 21.3759 9.48027C20.2979 8.13037 18.783 7.34855 17.3548 7.34855L17.3595 7.34668Z" fill="black"/>
<path d="M16.9444 2.43188C15.8195 2.50829 14.5071 3.22448 13.7384 4.15957C13.0409 5.007 12.4672 6.2641 12.6922 7.48322H12.7822C13.9802 7.48322 15.2064 6.76187 15.9226 5.83757C16.6125 4.95779 17.1356 3.71101 16.9444 2.43188Z" fill="black"/>
</svg>
